<svg width="60" height="44" viewBox="0 0 60 44" fill="none" xmlns="http://www.w3.org/2000/svg">
<path fill-rule="evenodd" clip-rule="evenodd" d="M58.1078 29.4286V33.1289L58.1073 33.1291C58.7871 33.2853 59.2992 33.9597 59.2992 34.7617V36.0924C59.2992 36.8996 58.7871 37.5714 58.1073 37.7277V37.7615H50.283C49.85 40.7795 47.5151 43.0945 44.6982 43.0945C41.8814 43.0945 39.5464 40.7795 39.1158 37.7615H18.3991C17.9661 40.7795 15.6312 43.0945 12.8143 43.0945C9.99747 43.0945 7.66023 40.7769 7.22955 37.7615H2.68305L1.79144 37.7641C0.967352 37.7641 0.299225 37.0142 0.299225 36.095V34.7643C0.299225 33.8425 0.969677 33.0952 1.79144 33.0952H2.68305V18.0989C2.68305 13.5028 6.02608 9.76351 10.1349 9.76351L17.0117 9.7583V7.09962C9.75826 6.32628 3.61221 4.88104 1.75217 2.80046C1.47514 2.49321 1.40996 2.01927 1.59154 1.63127C1.77313 1.24588 2.15493 1.03236 2.54138 1.11048C8.47294 2.29787 17.6966 2.45672 25.9327 2.45672C27.6833 2.45672 29.4037 2.45151 31.0566 2.4437C31.4764 2.44227 31.892 2.44065 32.3027 2.43905L32.3027 2.43905L32.3032 2.43905L32.3036 2.43904L32.3039 2.43904L32.3042 2.43904L32.305 2.43904C33.394 2.43479 34.449 2.43068 35.461 2.43068L43.134 2.43328H43.1363C48.3301 2.43328 51.5286 2.39422 55.677 2.16767C56.0868 2.14941 56.4662 2.44627 56.5803 2.89155C56.6943 3.33686 56.5197 3.8134 56.1589 4.03994C55.5606 4.41491 54.8157 4.76383 53.9334 5.08673V7.11006C53.9334 8.01106 53.505 8.78962 52.7857 9.19584C52.4807 9.3677 52.1595 9.45364 51.8405 9.45364C51.4076 9.45364 50.9769 9.29739 50.6044 8.98752L47.7201 6.59449C44.0466 7.19342 39.4979 7.57361 34.2693 7.70901V9.76613L40.5245 9.76353C44.5103 9.76353 48.1861 11.2556 51.1379 13.7632L51.3824 13.9768C53.8523 16.1509 55.7892 19.0491 56.9369 22.3848L56.9438 22.4005L56.9601 22.4447C56.9764 22.4965 56.994 22.5468 57.0115 22.5968L57.0116 22.5969C57.0266 22.6399 57.0416 22.6826 57.0556 22.726L57.4118 23.7598H57.3605C57.8448 25.5565 58.1078 27.46 58.1078 29.4286ZM41.7192 21.7624H54.7486H54.7489C53.7478 19.4527 52.3045 17.4033 50.5143 15.7629H41.7192C41.5585 15.7629 41.4212 15.9165 41.4212 16.0962V21.4291C41.4212 21.6088 41.5585 21.7624 41.7192 21.7624ZM52.1483 7.10997C52.1483 7.24798 52.0947 7.34693 51.983 7.40943C51.8712 7.47193 51.7711 7.46151 51.671 7.37818L50.1718 6.13607C50.8749 5.98504 51.5337 5.82359 52.1483 5.65433L52.1483 7.10997ZM29.9081 4.45003L29.908 4.45003C28.613 4.45454 27.284 4.45916 25.9357 4.45916L25.9362 4.4591C20.6447 4.4591 14.9457 4.3914 9.93832 4.02945C14.7477 5.04504 21.6644 5.76372 29.8004 5.76372C37.2773 5.76372 43.8168 5.27422 48.5635 4.41228C46.9455 4.43312 45.1972 4.44093 43.1393 4.44093H43.137L35.4617 4.43312C34.0696 4.43312 32.596 4.43832 31.0642 4.44614L29.9081 4.45003ZM18.8003 7.27922C22.3876 7.59951 26.1728 7.76356 29.7998 7.76356C30.71 7.76356 31.604 7.75574 32.4817 7.74272V9.76338H18.8003V7.27922ZM8.94138 36.7619C8.94138 39.1524 10.6781 41.0949 12.8151 41.0949C14.9521 41.0949 16.6888 39.1524 16.6888 36.7619C16.6888 34.3715 14.9521 32.4289 12.8151 32.4289C10.6781 32.4289 8.94138 34.3715 8.94138 36.7619ZM44.6988 41.0949C42.5618 41.0949 40.8251 39.1524 40.8251 36.7619C40.8251 34.3715 42.5618 32.4289 44.6988 32.4289C46.8358 32.4289 48.5725 34.3715 48.5725 36.7619C48.5725 39.1524 46.8358 41.0949 44.6988 41.0949ZM44.6988 30.4289C47.5156 30.4289 49.8529 32.7439 50.2835 35.7619H57.5118V35.0952H52.1482V33.0954H56.3199V29.4316C56.3199 27.4473 56.0219 25.5438 55.4818 23.7627H41.7188C40.5688 23.7627 39.6329 22.7159 39.6329 21.4295V16.0966C39.6329 14.8102 40.5688 13.7634 41.7188 13.7634H47.8113C45.6297 12.49 43.1504 11.7635 40.5245 11.7635H10.1355C7.01133 11.7635 4.47154 14.6071 4.47154 18.099V21.7628H13.4526V23.7627H4.47154V33.0954H5.66345V35.0952H2.08771V35.7619H7.23016C7.66318 32.7439 9.99809 30.4289 12.8149 30.4289C15.6318 30.4289 17.969 32.7439 18.3997 35.7619H39.114C39.547 32.7439 41.8819 30.4289 44.6988 30.4289Z" fill="white"/>
<path d="M58.1078 33.1289L58.202 33.4137L58.4078 33.3456V33.1289H58.1078ZM58.1073 33.1291L58.0131 32.8442L56.9947 33.1811L58.0401 33.4214L58.1073 33.1291ZM58.1073 37.7277L58.0401 37.4353L57.8073 37.4888V37.7277H58.1073ZM58.1073 37.7615V38.0615H58.4073V37.7615H58.1073ZM50.283 37.7615V37.4615H50.023L49.986 37.7189L50.283 37.7615ZM39.1158 37.7615L39.4128 37.7191L39.376 37.4615H39.1158V37.7615ZM18.3991 37.7615V37.4615H18.1391L18.1021 37.7189L18.3991 37.7615ZM7.22955 37.7615L7.52654 37.7191L7.48975 37.4615H7.22955V37.7615ZM2.68305 37.7615L2.68305 37.4615L2.68218 37.4615L2.68305 37.7615ZM1.79144 37.7641L1.79144 38.0641L1.79232 38.0641L1.79144 37.7641ZM2.68305 33.0952V33.3952H2.98305V33.0952H2.68305ZM10.1349 9.76351L10.1349 10.0635L10.1351 10.0635L10.1349 9.76351ZM17.0117 9.7583L17.0119 10.0583L17.3117 10.0581V9.7583H17.0117ZM17.0117 7.09962H17.3117V6.82991L17.0435 6.80131L17.0117 7.09962ZM1.75217 2.80046L1.97582 2.60051L1.97497 2.59957L1.75217 2.80046ZM1.59154 1.63127L1.32016 1.5034L1.31982 1.50411L1.59154 1.63127ZM2.54138 1.11048L2.48193 1.40453L2.48249 1.40464L2.54138 1.11048ZM31.0566 2.4437L31.0555 2.1437L31.0551 2.1437L31.0566 2.4437ZM32.3027 2.43905L32.3038 2.73905L32.304 2.73904L32.3027 2.43905ZM32.3027 2.43905L32.3015 2.13905L32.3014 2.13905L32.3027 2.43905ZM32.3032 2.43905L32.3021 2.13905L32.302 2.13905L32.3032 2.43905ZM32.3036 2.43904L32.3025 2.13905L32.3025 2.13905L32.3036 2.43904ZM32.3039 2.43904L32.3028 2.13904L32.3028 2.13904L32.3039 2.43904ZM32.3042 2.43904L32.3053 2.73904L32.3053 2.73904L32.3042 2.43904ZM32.305 2.43904L32.3061 2.73904L32.3061 2.73904L32.305 2.43904ZM35.461 2.43068L35.4611 2.13068H35.461V2.43068ZM43.134 2.43328L43.1339 2.73328H43.134V2.43328ZM55.677 2.16767L55.6637 1.86795L55.6607 1.86812L55.677 2.16767ZM56.5803 2.89155L56.8709 2.81711L56.8709 2.8171L56.5803 2.89155ZM56.1589 4.03994L56.3182 4.29414L56.3184 4.29402L56.1589 4.03994ZM53.9334 5.08673L53.8303 4.80501L53.6334 4.87706V5.08673H53.9334ZM52.7857 9.19584L52.933 9.45719L52.9332 9.45706L52.7857 9.19584ZM50.6044 8.98752L50.7963 8.7569L50.796 8.75664L50.6044 8.98752ZM47.7201 6.59449L47.9117 6.36361L47.8066 6.27643L47.6718 6.2984L47.7201 6.59449ZM34.2693 7.70901L34.2616 7.40911L33.9693 7.41668V7.70901H34.2693ZM34.2693 9.76613H33.9693V10.0663L34.2695 10.0661L34.2693 9.76613ZM40.5245 9.76353L40.5245 9.46353L40.5244 9.46353L40.5245 9.76353ZM51.1379 13.7632L51.3353 13.5373L51.3321 13.5346L51.1379 13.7632ZM51.3824 13.9768L51.5806 13.7516L51.5797 13.7508L51.3824 13.9768ZM56.9369 22.3848L56.6532 22.4824L56.6575 22.4951L56.663 22.5073L56.9369 22.3848ZM56.9438 22.4005L57.2254 22.2968L57.2219 22.2873L57.2177 22.278L56.9438 22.4005ZM56.9601 22.4447L57.2463 22.3548L57.2442 22.3479L57.2417 22.3411L56.9601 22.4447ZM57.0115 22.5968L56.7281 22.6961L56.733 22.7082L57.0115 22.5968ZM57.0116 22.5969L57.295 22.4976L57.2901 22.4855L57.0116 22.5969ZM57.0556 22.726L56.77 22.8182L56.7719 22.8237L57.0556 22.726ZM57.4118 23.7598V24.0598H57.8324L57.6954 23.662L57.4118 23.7598ZM57.3605 23.7598V23.4598H56.969L57.0709 23.8378L57.3605 23.7598ZM54.7489 21.7624V22.0624H55.2058L55.0241 21.6431L54.7489 21.7624ZM50.5143 15.7629L50.717 15.5417L50.631 15.4629H50.5143V15.7629ZM51.983 7.40943L51.8365 7.1476L51.8365 7.1476L51.983 7.40943ZM52.1483 7.10997L51.8483 7.10997V7.10997H52.1483ZM51.671 7.37818L51.863 7.14761L51.8624 7.14717L51.671 7.37818ZM50.1718 6.13607L50.1088 5.84276L49.5043 5.97262L49.9804 6.36708L50.1718 6.13607ZM52.1483 5.65433L52.4483 5.65433L52.4483 5.26053L52.0686 5.3651L52.1483 5.65433ZM29.908 4.45003L29.909 4.75003L29.9096 4.75003L29.908 4.45003ZM29.9081 4.45003L29.9071 4.15003L29.9065 4.15004L29.9081 4.45003ZM25.9357 4.45916L25.9051 4.16072L25.9357 4.75916V4.45916ZM25.9362 4.4591L25.9668 4.75754L25.9362 4.1591V4.4591ZM9.93832 4.02945L9.95995 3.73023L9.87634 4.32297L9.93832 4.02945ZM48.5635 4.41228L48.6171 4.70746L48.5596 4.11231L48.5635 4.41228ZM43.137 4.44093L43.1367 4.74093H43.137V4.44093ZM35.4617 4.43312L35.462 4.13312H35.4617V4.43312ZM31.0642 4.44614L31.0652 4.74614L31.0657 4.74613L31.0642 4.44614ZM18.8003 7.27922L18.8269 6.9804L18.5003 6.95124V7.27922H18.8003ZM32.4817 7.74272H32.7817V7.43824L32.4772 7.44276L32.4817 7.74272ZM32.4817 9.76338V10.0634H32.7817V9.76338H32.4817ZM18.8003 9.76338H18.5003V10.0634H18.8003V9.76338ZM50.2835 35.7619L49.9865 35.8042L50.0233 36.0619H50.2835V35.7619ZM57.5118 35.7619V36.0619H57.8118V35.7619H57.5118ZM57.5118 35.0952H57.8118V34.7952H57.5118V35.0952ZM52.1482 35.0952H51.8482V35.3952H52.1482V35.0952ZM52.1482 33.0954V32.7954H51.8482V33.0954H52.1482ZM56.3199 33.0954V33.3954H56.6199V33.0954H56.3199ZM55.4818 23.7627L55.7689 23.6756L55.7044 23.4627H55.4818V23.7627ZM47.8113 13.7634V14.0634H48.9203L47.9625 13.5043L47.8113 13.7634ZM4.47154 21.7628H4.17154V22.0628H4.47154V21.7628ZM13.4526 21.7628H13.7526V21.4628H13.4526V21.7628ZM13.4526 23.7627V24.0627H13.7526V23.7627H13.4526ZM4.47154 23.7627V23.4627H4.17154V23.7627H4.47154ZM4.47154 33.0954H4.17154V33.3954H4.47154V33.0954ZM5.66345 33.0954H5.96345V32.7954H5.66345V33.0954ZM5.66345 35.0952V35.3952H5.96345V35.0952H5.66345ZM2.08771 35.0952V34.7952H1.78771V35.0952H2.08771ZM2.08771 35.7619H1.78771V36.0619H2.08771V35.7619ZM7.23016 35.7619V36.0619H7.49019L7.52712 35.8045L7.23016 35.7619ZM18.3997 35.7619L18.1027 35.8042L18.1395 36.0619H18.3997V35.7619ZM39.114 35.7619V36.0619H39.374L39.4109 35.8045L39.114 35.7619ZM58.4078 33.1289V29.4286H57.8078V33.1289H58.4078ZM58.2015 33.4139L58.202 33.4137L58.0136 32.8441L58.0131 32.8442L58.2015 33.4139ZM59.5992 34.7617C59.5992 33.8389 59.0082 33.0283 58.1745 32.8367L58.0401 33.4214C58.566 33.5423 58.9992 34.0806 58.9992 34.7617H59.5992ZM59.5992 36.0924V34.7617H58.9992V36.0924H59.5992ZM58.1745 38.02C59.0082 37.8284 59.5992 37.0204 59.5992 36.0924H58.9992C58.9992 36.7788 58.566 37.3144 58.0401 37.4353L58.1745 38.02ZM58.4073 37.7615V37.7277H57.8073V37.7615H58.4073ZM50.283 38.0615H58.1073V37.4615H50.283V38.0615ZM44.6982 43.3945C47.6919 43.3945 50.1299 40.9408 50.5799 37.8041L49.986 37.7189C49.57 40.6182 47.3383 42.7945 44.6982 42.7945V43.3945ZM38.8188 37.8039C39.2664 40.9408 41.7046 43.3945 44.6982 43.3945V42.7945C42.0581 42.7945 39.8265 40.6182 39.4128 37.7191L38.8188 37.8039ZM18.3991 38.0615H39.1158V37.4615H18.3991V38.0615ZM12.8143 43.3945C15.808 43.3945 18.246 40.9408 18.6961 37.8041L18.1021 37.7189C17.6861 40.6182 15.4544 42.7945 12.8143 42.7945V43.3945ZM6.93256 37.8039C7.38022 40.9382 9.82073 43.3945 12.8143 43.3945V42.7945C10.1742 42.7945 7.94023 40.6156 7.52654 37.7191L6.93256 37.8039ZM2.68305 38.0615H7.22955V37.4615H2.68305V38.0615ZM1.79232 38.0641L2.68393 38.0615L2.68218 37.4615L1.79057 37.4641L1.79232 38.0641ZM-0.000775158 36.095C-0.000775158 37.1471 0.770656 38.0641 1.79144 38.0641V37.4641C1.16405 37.4641 0.599225 36.8813 0.599225 36.095H-0.000775158ZM-0.000775158 34.7643V36.095H0.599225V34.7643H-0.000775158ZM1.79144 32.7952C0.77355 32.7952 -0.000775158 33.709 -0.000775158 34.7643H0.599225C0.599225 33.9761 1.1658 33.3952 1.79144 33.3952V32.7952ZM2.68305 32.7952H1.79144V33.3952H2.68305V32.7952ZM2.38305 18.0989V33.0952H2.98305V18.0989H2.38305ZM10.1349 9.46351C5.82967 9.46351 2.38305 13.3696 2.38305 18.0989H2.98305C2.98305 13.636 6.22249 10.0635 10.1349 10.0635V9.46351ZM17.0114 9.4583L10.1347 9.46351L10.1351 10.0635L17.0119 10.0583L17.0114 9.4583ZM16.7117 7.09962V9.7583H17.3117V7.09962H16.7117ZM1.52851 3.0004C2.03264 3.5643 2.80741 4.06559 3.77516 4.51346C4.74683 4.96314 5.93363 5.36825 7.28165 5.73C9.97783 6.45355 13.3444 7.01033 16.9798 7.39793L17.0435 6.80131C13.4255 6.41557 10.0924 5.86306 7.43716 5.15051C6.10948 4.79421 4.95767 4.39957 4.02716 3.96894C3.09272 3.53649 2.40172 3.07691 1.97582 2.60051L1.52851 3.0004ZM1.31982 1.50411C1.08946 1.99633 1.16793 2.60049 1.52936 3.00135L1.97497 2.59957C1.78236 2.38594 1.73045 2.0422 1.86326 1.75844L1.31982 1.50411ZM2.60082 0.816425C2.06032 0.70716 1.55208 1.01117 1.32016 1.5034L1.86292 1.75914C1.99417 1.48059 2.24955 1.35755 2.48193 1.40453L2.60082 0.816425ZM25.9327 2.15672C17.6896 2.15672 8.4972 1.99678 2.60026 0.816313L2.48249 1.40464C8.44868 2.59897 17.7036 2.75672 25.9327 2.75672V2.15672ZM31.0551 2.1437C29.4027 2.15151 27.6827 2.15672 25.9327 2.15672V2.75672C27.6839 2.75672 29.4048 2.75151 31.058 2.74369L31.0551 2.1437ZM32.3015 2.13905C31.8908 2.14065 31.4753 2.14227 31.0555 2.1437L31.0576 2.74369C31.4776 2.74227 31.8931 2.74065 32.3038 2.73905L32.3015 2.13905ZM32.3014 2.13905L32.3013 2.13905L32.304 2.73904L32.3041 2.73904L32.3014 2.13905ZM32.302 2.13905L32.3015 2.13905L32.304 2.73904L32.3045 2.73904L32.302 2.13905ZM32.3025 2.13905L32.3021 2.13905L32.3044 2.73904L32.3048 2.73904L32.3025 2.13905ZM32.3028 2.13904L32.3025 2.13905L32.3047 2.73904L32.305 2.73904L32.3028 2.13904ZM32.3031 2.13904L32.3028 2.13904L32.305 2.73904L32.3053 2.73904L32.3031 2.13904ZM32.3039 2.13904L32.3031 2.13904L32.3053 2.73904L32.3061 2.73904L32.3039 2.13904ZM35.461 2.13068C34.4483 2.13068 33.3927 2.13479 32.3038 2.13904L32.3061 2.73904C33.3953 2.73479 34.4497 2.73068 35.461 2.73068V2.13068ZM43.1341 2.13328L35.4611 2.13068L35.4609 2.73068L43.1339 2.73328L43.1341 2.13328ZM43.1363 2.13328H43.134V2.73328H43.1363V2.13328ZM55.6607 1.86812C51.5204 2.09422 48.3283 2.13328 43.1363 2.13328V2.73328C48.3319 2.73328 51.5368 2.69421 55.6934 2.46723L55.6607 1.86812ZM56.8709 2.8171C56.7261 2.25181 56.2326 1.84261 55.6637 1.86797L55.6904 2.46737C55.9409 2.45621 56.2063 2.64073 56.2897 2.966L56.8709 2.8171ZM56.3184 4.29402C56.8013 3.99084 57.0138 3.375 56.8709 2.81711L56.2897 2.966C56.3749 3.29871 56.2382 3.63595 55.9994 3.78586L56.3184 4.29402ZM54.0365 5.36846C54.9319 5.04077 55.6972 4.6834 56.3182 4.29414L55.9996 3.78574C55.4241 4.14643 54.6995 4.4869 53.8303 4.80501L54.0365 5.36846ZM54.2334 7.11006V5.08673H53.6334V7.11006H54.2334ZM52.9332 9.45706C53.7567 8.99199 54.2334 8.10727 54.2334 7.11006H53.6334C53.6334 7.91484 53.2533 8.58724 52.6382 8.93462L52.9332 9.45706ZM51.8405 9.75364C52.2145 9.75364 52.5861 9.65265 52.933 9.45719L52.6384 8.93449C52.3753 9.08276 52.1044 9.15364 51.8405 9.15364V9.75364ZM50.4125 9.21815C50.8355 9.56998 51.3331 9.75364 51.8405 9.75364V9.15364C51.482 9.15364 51.1183 9.02481 50.7963 8.7569L50.4125 9.21815ZM47.5285 6.82537L50.4129 9.2184L50.796 8.75664L47.9117 6.36361L47.5285 6.82537ZM34.2771 8.00891C39.5145 7.87328 44.0775 7.49235 47.7684 6.89058L47.6718 6.2984C44.0157 6.8945 39.4813 7.27394 34.2616 7.40911L34.2771 8.00891ZM34.5693 9.76613V7.70901H33.9693V9.76613H34.5693ZM40.5244 9.46353L34.2692 9.46613L34.2695 10.0661L40.5246 10.0635L40.5244 9.46353ZM51.3321 13.5346C48.331 10.9851 44.5876 9.46353 40.5245 9.46353V10.0635C44.4329 10.0635 48.0412 11.5262 50.9437 13.9919L51.3321 13.5346ZM51.5797 13.7508L51.3353 13.5373L50.9405 13.9892L51.185 14.2027L51.5797 13.7508ZM57.2205 22.2872C56.0566 18.9043 54.0911 15.9615 51.5806 13.7516L51.1841 14.202C53.6135 16.3403 55.5217 19.194 56.6532 22.4824L57.2205 22.2872ZM57.2177 22.278L57.2107 22.2624L56.663 22.5073L56.67 22.5229L57.2177 22.278ZM57.2417 22.3411L57.2254 22.2968L56.6623 22.5041L56.6786 22.5484L57.2417 22.3411ZM57.2947 22.4976C57.2769 22.447 57.2609 22.4012 57.2463 22.3548L56.6739 22.5346C56.6919 22.5918 56.7111 22.6467 56.7284 22.696L57.2947 22.4976ZM57.2901 22.4855L57.2901 22.4854L56.733 22.7082L56.733 22.7083L57.2901 22.4855ZM57.3411 22.6338C57.3258 22.5864 57.3096 22.5402 57.2947 22.4977L56.7284 22.6961C56.7437 22.7396 56.7574 22.7789 56.7701 22.8181L57.3411 22.6338ZM57.6954 23.662L57.3392 22.6282L56.7719 22.8237L57.1281 23.8575L57.6954 23.662ZM57.3605 24.0598H57.4118V23.4598H57.3605V24.0598ZM58.4078 29.4286C58.4078 27.4333 58.1412 25.5035 57.6502 23.6817L57.0709 23.8378C57.5483 25.6095 57.8078 27.4868 57.8078 29.4286H58.4078ZM54.7486 21.4624H41.7192V22.0624H54.7486V21.4624ZM54.7489 21.4624H54.7486V22.0624H54.7489V21.4624ZM50.3116 15.984C52.0693 17.5948 53.4886 19.609 54.4736 21.8817L55.0241 21.6431C54.0071 19.2965 52.5396 17.2119 50.717 15.5417L50.3116 15.984ZM41.7192 16.0629H50.5143V15.4629H41.7192V16.0629ZM41.7212 16.0962C41.7212 16.0823 41.7268 16.0696 41.7336 16.0621C41.7405 16.0543 41.7374 16.0629 41.7192 16.0629V15.4629C41.3621 15.4629 41.1212 15.7833 41.1212 16.0962H41.7212ZM41.7212 21.4291V16.0962H41.1212V21.4291H41.7212ZM41.7192 21.4624C41.7374 21.4624 41.7405 21.4709 41.7336 21.4632C41.7268 21.4556 41.7212 21.443 41.7212 21.4291H41.1212C41.1212 21.742 41.3621 22.0624 41.7192 22.0624V21.4624ZM52.1294 7.67126C52.2283 7.61598 52.3129 7.53731 52.3705 7.43244C52.4272 7.32917 52.4483 7.21779 52.4483 7.10997H51.8483C51.8483 7.14016 51.8426 7.14727 51.8446 7.1436C51.8449 7.14304 51.8453 7.14239 51.8458 7.14176C51.8463 7.14114 51.8466 7.14085 51.8465 7.14092C51.8464 7.14096 51.8438 7.14351 51.8365 7.1476L52.1294 7.67126ZM51.4791 7.60875C51.5623 7.67797 51.6668 7.73426 51.7925 7.74697C51.919 7.75976 52.0333 7.72502 52.1294 7.67126L51.8365 7.1476C51.8282 7.15226 51.8262 7.15212 51.83 7.15119C51.8344 7.15012 51.8426 7.14898 51.8528 7.15001C51.863 7.15104 51.87 7.15368 51.8728 7.15496C51.875 7.15599 51.8716 7.15484 51.863 7.14761L51.4791 7.60875ZM49.9804 6.36708L51.4796 7.60919L51.8624 7.14717L50.3632 5.90506L49.9804 6.36708ZM52.0686 5.3651C51.4599 5.53276 50.8066 5.69287 50.1088 5.84276L50.2349 6.42938C50.9432 6.27722 51.6076 6.11442 52.2279 5.94356L52.0686 5.3651ZM52.4483 7.10997L52.4483 5.65433L51.8483 5.65433L51.8483 7.10997L52.4483 7.10997ZM29.9096 4.75003L29.9097 4.75003L29.9065 4.15004L29.9064 4.15004L29.9096 4.75003ZM25.9357 4.75916C27.2846 4.75916 28.6142 4.75453 29.909 4.75003L29.9069 4.15003C28.6119 4.15454 27.2834 4.15916 25.9357 4.15916V4.75916ZM25.9056 4.16066L25.9051 4.16072L25.9662 4.75759L25.9668 4.75754L25.9056 4.16066ZM9.9167 4.32866C14.9356 4.69145 20.6437 4.7591 25.9362 4.7591V4.1591C20.6457 4.1591 14.9559 4.09135 9.95995 3.73023L9.9167 4.32866ZM29.8004 5.46372C21.6798 5.46372 14.7846 4.74622 10.0003 3.73592L9.87634 4.32297C14.7108 5.34386 21.649 6.06372 29.8004 6.06372V5.46372ZM48.5099 4.11711C43.7871 4.97472 37.2668 5.46372 29.8004 5.46372V6.06372C37.2877 6.06372 43.8466 5.57372 48.6171 4.70746L48.5099 4.11711ZM43.1393 4.74093C45.1979 4.74093 46.9476 4.73311 48.5674 4.71226L48.5596 4.11231C46.9434 4.13312 45.1966 4.14093 43.1393 4.14093V4.74093ZM43.137 4.74093H43.1393V4.14093H43.137V4.74093ZM35.4614 4.73312L43.1367 4.74093L43.1373 4.14093L35.462 4.13312L35.4614 4.73312ZM31.0657 4.74613C32.5972 4.73832 34.0703 4.73312 35.4617 4.73312V4.13312C34.0689 4.13312 32.5947 4.13833 31.0626 4.14614L31.0657 4.74613ZM29.9091 4.75003L31.0652 4.74614L31.0632 4.14614L29.9071 4.15003L29.9091 4.75003ZM29.7998 7.46356C26.1815 7.46356 22.4052 7.29988 18.8269 6.9804L18.7736 7.57803C22.3701 7.89913 26.1642 8.06356 29.7998 8.06356V7.46356ZM32.4772 7.44276C31.6008 7.45576 30.7083 7.46356 29.7998 7.46356V8.06356C30.7118 8.06356 31.6072 8.05573 32.4861 8.04269L32.4772 7.44276ZM32.7817 9.76338V7.74272H32.1817V9.76338H32.7817ZM18.8003 10.0634H32.4817V9.46338H18.8003V10.0634ZM18.5003 7.27922V9.76338H19.1003V7.27922H18.5003ZM12.8151 40.7949C10.8745 40.7949 9.24138 39.0192 9.24138 36.7619H8.64138C8.64138 39.2855 10.4816 41.3949 12.8151 41.3949V40.7949ZM16.3888 36.7619C16.3888 39.0192 14.7557 40.7949 12.8151 40.7949V41.3949C15.1486 41.3949 16.9888 39.2855 16.9888 36.7619H16.3888ZM12.8151 32.7289C14.7557 32.7289 16.3888 34.5047 16.3888 36.7619H16.9888C16.9888 34.2383 15.1486 32.1289 12.8151 32.1289V32.7289ZM9.24138 36.7619C9.24138 34.5047 10.8745 32.7289 12.8151 32.7289V32.1289C10.4816 32.1289 8.64138 34.2383 8.64138 36.7619H9.24138ZM40.5251 36.7619C40.5251 39.2855 42.3653 41.3949 44.6988 41.3949V40.7949C42.7582 40.7949 41.1251 39.0192 41.1251 36.7619H40.5251ZM44.6988 32.1289C42.3653 32.1289 40.5251 34.2383 40.5251 36.7619H41.1251C41.1251 34.5047 42.7582 32.7289 44.6988 32.7289V32.1289ZM48.8725 36.7619C48.8725 34.2383 47.0322 32.1289 44.6988 32.1289V32.7289C46.6394 32.7289 48.2725 34.5047 48.2725 36.7619H48.8725ZM44.6988 41.3949C47.0322 41.3949 48.8725 39.2855 48.8725 36.7619H48.2725C48.2725 39.0192 46.6394 40.7949 44.6988 40.7949V41.3949ZM50.5805 35.7195C50.1329 32.5824 47.6923 30.1289 44.6988 30.1289V30.7289C47.339 30.7289 49.5729 32.9053 49.9865 35.8042L50.5805 35.7195ZM57.5118 35.4619H50.2835V36.0619H57.5118V35.4619ZM57.2118 35.0952V35.7619H57.8118V35.0952H57.2118ZM52.1482 35.3952H57.5118V34.7952H52.1482V35.3952ZM51.8482 33.0954V35.0952H52.4482V33.0954H51.8482ZM56.3199 32.7954H52.1482V33.3954H56.3199V32.7954ZM56.0199 29.4316V33.0954H56.6199V29.4316H56.0199ZM55.1947 23.8498C55.7265 25.6033 56.0199 27.4775 56.0199 29.4316H56.6199C56.6199 27.4171 56.3174 25.4844 55.7689 23.6756L55.1947 23.8498ZM41.7188 24.0627H55.4818V23.4627H41.7188V24.0627ZM39.3329 21.4295C39.3329 22.8491 40.3724 24.0627 41.7188 24.0627V23.4627C40.7652 23.4627 39.9329 22.5827 39.9329 21.4295H39.3329ZM39.3329 16.0966V21.4295H39.9329V16.0966H39.3329ZM41.7188 13.4634C40.3724 13.4634 39.3329 14.677 39.3329 16.0966H39.9329C39.9329 14.9434 40.7652 14.0634 41.7188 14.0634V13.4634ZM47.8113 13.4634H41.7188V14.0634H47.8113V13.4634ZM40.5245 12.0635C43.094 12.0635 45.5214 12.7742 47.66 14.0225L47.9625 13.5043C45.738 12.2059 43.2068 11.4635 40.5245 11.4635V12.0635ZM10.1355 12.0635H40.5245V11.4635H10.1355V12.0635ZM4.77154 18.099C4.77154 14.7402 7.20781 12.0635 10.1355 12.0635V11.4635C6.81484 11.4635 4.17154 14.474 4.17154 18.099H4.77154ZM4.77154 21.7628V18.099H4.17154V21.7628H4.77154ZM13.4526 21.4628H4.47154V22.0628H13.4526V21.4628ZM13.7526 23.7627V21.7628H13.1526V23.7627H13.7526ZM4.47154 24.0627H13.4526V23.4627H4.47154V24.0627ZM4.77154 33.0954V23.7627H4.17154V33.0954H4.77154ZM5.66345 32.7954H4.47154V33.3954H5.66345V32.7954ZM5.96345 35.0952V33.0954H5.36345V35.0952H5.96345ZM2.08771 35.3952H5.66345V34.7952H2.08771V35.3952ZM2.38771 35.7619V35.0952H1.78771V35.7619H2.38771ZM7.23016 35.4619H2.08771V36.0619H7.23016V35.4619ZM12.8149 30.1289C9.82128 30.1289 7.38325 32.5826 6.9332 35.7192L7.52712 35.8045C7.94312 32.9051 10.1749 30.7289 12.8149 30.7289V30.1289ZM18.6967 35.7195C18.249 32.5824 15.8084 30.1289 12.8149 30.1289V30.7289C15.4551 30.7289 17.689 32.9053 18.1027 35.8042L18.6967 35.7195ZM39.114 35.4619H18.3997V36.0619H39.114V35.4619ZM44.6988 30.1289C41.7051 30.1289 39.2671 32.5826 38.817 35.7192L39.4109 35.8045C39.8269 32.9051 42.0587 30.7289 44.6988 30.7289V30.1289Z" fill="#222532"/>
<path fill-rule="evenodd" clip-rule="evenodd" d="M27.1181 16.0961V21.4291C27.1181 22.7154 26.1823 23.7622 25.0322 23.7622H19.0727C17.9226 23.7622 16.9868 22.7154 16.9868 21.4291V16.0961C16.9868 14.8097 17.9226 13.7629 19.0727 13.7629H25.0322C26.1823 13.7629 27.1181 14.8097 27.1181 16.0961ZM18.7747 16.0962V21.4291C18.7747 21.6114 18.912 21.7624 19.0726 21.7624H25.0322C25.1928 21.7624 25.3302 21.6088 25.3302 21.4291V16.0962C25.3302 15.9165 25.1928 15.7629 25.0322 15.7629H19.0726C18.912 15.7629 18.7747 15.9165 18.7747 16.0962Z" fill="white"/>
<path d="M27.4181 21.4291V16.0961H26.8181V21.4291H27.4181ZM25.0322 24.0622C26.3787 24.0622 27.4181 22.8486 27.4181 21.4291H26.8181C26.8181 22.5822 25.9858 23.4622 25.0322 23.4622V24.0622ZM19.0727 24.0622H25.0322V23.4622H19.0727V24.0622ZM16.6868 21.4291C16.6868 22.8486 17.7262 24.0622 19.0727 24.0622V23.4622C18.1191 23.4622 17.2868 22.5822 17.2868 21.4291H16.6868ZM16.6868 16.0961V21.4291H17.2868V16.0961H16.6868ZM19.0727 13.4629C17.7262 13.4629 16.6868 14.6765 16.6868 16.0961H17.2868C17.2868 14.9429 18.1191 14.0629 19.0727 14.0629V13.4629ZM25.0322 13.4629H19.0727V14.0629H25.0322V13.4629ZM27.4181 16.0961C27.4181 14.6765 26.3787 13.4629 25.0322 13.4629V14.0629C25.9858 14.0629 26.8181 14.9429 26.8181 16.0961H27.4181ZM19.0747 21.4291V16.0962H18.4747V21.4291H19.0747ZM19.0726 21.4624C19.0892 21.4624 19.0925 21.4702 19.0865 21.4636C19.0808 21.4572 19.0747 21.445 19.0747 21.4291H18.4747C18.4747 21.7462 18.717 22.0624 19.0726 22.0624V21.4624ZM25.0322 21.4624H19.0726V22.0624H25.0322V21.4624ZM25.0302 21.4291C25.0302 21.443 25.0245 21.4556 25.0178 21.4632C25.0109 21.4709 25.014 21.4624 25.0322 21.4624V22.0624C25.3892 22.0624 25.6302 21.742 25.6302 21.4291H25.0302ZM25.0302 16.0962V21.4291H25.6302V16.0962H25.0302ZM25.0322 16.0629C25.014 16.0629 25.0109 16.0543 25.0178 16.0621C25.0245 16.0696 25.0302 16.0823 25.0302 16.0962H25.6302C25.6302 15.7833 25.3892 15.4629 25.0322 15.4629V16.0629ZM19.0726 16.0629H25.0322V15.4629H19.0726V16.0629ZM19.0747 16.0962C19.0747 16.0823 19.0803 16.0696 19.0871 16.0621C19.094 16.0543 19.0909 16.0629 19.0726 16.0629V15.4629C18.7156 15.4629 18.4747 15.7833 18.4747 16.0962H19.0747Z" fill="#222532"/>
<path fill-rule="evenodd" clip-rule="evenodd" d="M30.3958 13.7629H36.3554C37.5054 13.7629 38.4413 14.8097 38.4413 16.0961V21.4291C38.4413 22.7154 37.5054 23.7622 36.3554 23.7622H30.3958C29.2458 23.7622 28.31 22.7154 28.31 21.4291V16.0961C28.31 14.8097 29.2458 13.7629 30.3958 13.7629ZM36.3554 21.7624C36.516 21.7624 36.6534 21.6088 36.6534 21.4291V16.0962C36.6534 15.9165 36.516 15.7629 36.3554 15.7629H30.3958C30.2352 15.7629 30.0978 15.9165 30.0978 16.0962V21.4291C30.0978 21.6088 30.2352 21.7624 30.3958 21.7624H36.3554Z" fill="white"/>
<path d="M36.3554 13.4629H30.3958V14.0629H36.3554V13.4629ZM38.7413 16.0961C38.7413 14.6765 37.7018 13.4629 36.3554 13.4629V14.0629C37.309 14.0629 38.1413 14.9429 38.1413 16.0961H38.7413ZM38.7413 21.4291V16.0961H38.1413V21.4291H38.7413ZM36.3554 24.0622C37.7018 24.0622 38.7413 22.8486 38.7413 21.4291H38.1413C38.1413 22.5822 37.309 23.4622 36.3554 23.4622V24.0622ZM30.3958 24.0622H36.3554V23.4622H30.3958V24.0622ZM28.01 21.4291C28.01 22.8486 29.0494 24.0622 30.3958 24.0622V23.4622C29.4422 23.4622 28.61 22.5822 28.61 21.4291H28.01ZM28.01 16.0961V21.4291H28.61V16.0961H28.01ZM30.3958 13.4629C29.0494 13.4629 28.01 14.6765 28.01 16.0961H28.61C28.61 14.9429 29.4422 14.0629 30.3958 14.0629V13.4629ZM36.3534 21.4291C36.3534 21.443 36.3477 21.4556 36.341 21.4632C36.334 21.4709 36.3371 21.4624 36.3554 21.4624V22.0624C36.7124 22.0624 36.9534 21.742 36.9534 21.4291H36.3534ZM36.3534 16.0962V21.4291H36.9534V16.0962H36.3534ZM36.3554 16.0629C36.3371 16.0629 36.334 16.0543 36.341 16.0621C36.3477 16.0696 36.3534 16.0823 36.3534 16.0962H36.9534C36.9534 15.7833 36.7124 15.4629 36.3554 15.4629V16.0629ZM30.3958 16.0629H36.3554V15.4629H30.3958V16.0629ZM30.3978 16.0962C30.3978 16.0823 30.4035 16.0696 30.4102 16.0621C30.4172 16.0543 30.4141 16.0629 30.3958 16.0629V15.4629C30.0388 15.4629 29.7978 15.7833 29.7978 16.0962H30.3978ZM30.3978 21.4291V16.0962H29.7978V21.4291H30.3978ZM30.3958 21.4624C30.4141 21.4624 30.4172 21.4709 30.4102 21.4632C30.4035 21.4556 30.3978 21.443 30.3978 21.4291H29.7978C29.7978 21.742 30.0388 22.0624 30.3958 22.0624V21.4624ZM36.3554 21.4624H30.3958V22.0624H36.3554V21.4624Z" fill="#222532"/>
<path fill-rule="evenodd" clip-rule="evenodd" d="M42.3149 36.7613C42.3149 35.2901 43.3835 34.0948 44.6988 34.0948C46.014 34.0948 47.0826 35.2927 47.0826 36.7613C47.0826 38.2326 46.014 39.4278 44.6988 39.4278C43.3835 39.4278 42.3149 38.2326 42.3149 36.7613ZM44.1028 36.7614C44.1028 37.1285 44.3705 37.428 44.6988 37.428C45.027 37.428 45.2947 37.1285 45.2947 36.7614C45.2947 36.3942 45.027 36.0948 44.6988 36.0948C44.3705 36.0948 44.1028 36.3942 44.1028 36.7614Z" fill="white"/>
<path d="M44.6988 33.7948C43.1871 33.7948 42.0149 35.1569 42.0149 36.7613H42.6149C42.6149 35.4233 43.5799 34.3948 44.6988 34.3948V33.7948ZM47.3826 36.7613C47.3826 35.1597 46.2106 33.7948 44.6988 33.7948V34.3948C45.8175 34.3948 46.7826 35.4257 46.7826 36.7613H47.3826ZM44.6988 39.7278C46.2105 39.7278 47.3826 38.3657 47.3826 36.7613H46.7826C46.7826 38.0994 45.8176 39.1278 44.6988 39.1278V39.7278ZM42.0149 36.7613C42.0149 38.3657 43.1871 39.7278 44.6988 39.7278V39.1278C43.5799 39.1278 42.6149 38.0994 42.6149 36.7613H42.0149ZM44.6988 37.128C44.5669 37.128 44.4028 36.9953 44.4028 36.7614H43.8028C43.8028 37.2617 44.1741 37.728 44.6988 37.728V37.128ZM44.9947 36.7614C44.9947 36.9953 44.8306 37.128 44.6988 37.128V37.728C45.2234 37.728 45.5947 37.2617 45.5947 36.7614H44.9947ZM44.6988 36.3948C44.8306 36.3948 44.9947 36.5274 44.9947 36.7614H45.5947C45.5947 36.261 45.2234 35.7948 44.6988 35.7948V36.3948ZM44.4028 36.7614C44.4028 36.5274 44.5669 36.3948 44.6988 36.3948V35.7948C44.1741 35.7948 43.8028 36.261 43.8028 36.7614H44.4028Z" fill="#222532"/>
<path fill-rule="evenodd" clip-rule="evenodd" d="M10.4313 36.7613C10.4313 35.2901 11.4998 34.0948 12.8151 34.0948C14.1304 34.0948 15.1989 35.2927 15.1989 36.7613C15.1989 38.2326 14.1304 39.4278 12.8151 39.4278C11.4998 39.4278 10.4313 38.23 10.4313 36.7613ZM12.2191 36.7614C12.2191 37.1285 12.4868 37.428 12.8151 37.428C13.1433 37.428 13.411 37.1285 13.411 36.7614C13.411 36.3942 13.1433 36.0948 12.8151 36.0948C12.4868 36.0948 12.2191 36.3942 12.2191 36.7614Z" fill="white"/>
<path d="M12.8151 33.7948C11.3034 33.7948 10.1313 35.1569 10.1313 36.7613H10.7313C10.7313 35.4233 11.6962 34.3948 12.8151 34.3948V33.7948ZM15.4989 36.7613C15.4989 35.1597 14.327 33.7948 12.8151 33.7948V34.3948C13.9338 34.3948 14.8989 35.4257 14.8989 36.7613H15.4989ZM12.8151 39.7278C14.3268 39.7278 15.4989 38.3657 15.4989 36.7613H14.8989C14.8989 38.0994 13.934 39.1278 12.8151 39.1278V39.7278ZM10.1313 36.7613C10.1313 38.3629 11.3032 39.7278 12.8151 39.7278V39.1278C11.6964 39.1278 10.7313 38.097 10.7313 36.7613H10.1313ZM12.8151 37.128C12.6832 37.128 12.5191 36.9953 12.5191 36.7614H11.9191C11.9191 37.2617 12.2904 37.728 12.8151 37.728V37.128ZM13.111 36.7614C13.111 36.9953 12.9469 37.128 12.8151 37.128V37.728C13.3397 37.728 13.711 37.2617 13.711 36.7614H13.111ZM12.8151 36.3948C12.9469 36.3948 13.111 36.5274 13.111 36.7614H13.711C13.711 36.261 13.3397 35.7948 12.8151 35.7948V36.3948ZM12.5191 36.7614C12.5191 36.5274 12.6832 36.3948 12.8151 36.3948V35.7948C12.2904 35.7948 11.9191 36.261 11.9191 36.7614H12.5191Z" fill="#222532"/>
<path d="M19.3706 33.095H37.8453V35.0948H19.3706V33.095Z" fill="white" stroke="#222532" stroke-width="0.6"/>
</svg>
